<?xml version="1.0" encoding="UTF-8"?>
<svg width="20" height="20" id="Layer_1" xmlns="http://www.w3.org/2000/svg" version="1.1" viewBox="0 0 20 20">
  <!-- Generator: Adobe Illustrator 29.1.0, SVG Export Plug-In . SVG Version: 2.1.0 Build 142)  -->
  <defs>
    <style>
      .st0 {
        fill: #00ffd8;
      }

      .st1 {
        fill: #fff;
      }

      .st2 {
        fill: #2828ea;
      }
    </style>
  </defs>
  <path class="st2" d="M14.6,9.4c.3-.7.5-1.5.5-2.3,0-2.7-2.3-4.9-5-5s-5.2,2.2-5.2,5.1c0,2.8,2.2,5.1,5,5.2s1.3-.1,1.9-.3,1.2,0,1.6.4h0c.5.5.6,1.4.1,2l-3.1,4c-.2.2-.6.2-.8,0l-5.4-6.9c-.9-1.2-1.4-2.7-1.4-4.3,0-2.3,1.1-4.4,2.9-5.8C7,.5,8.5,0,10,0s1.5.1,2.3.4c2.1.7,3.9,2.4,4.6,4.6.6,1.8.4,3.7-.3,5.3s-1.2.8-1.7.3h0c-.3-.3-.4-.8-.2-1.2Z"/>
  <ellipse class="st2" cx="10" cy="19.6" rx="2.7" ry=".2"/>
  <rect class="st1" x="8.5" y="6.6" width=".8" height=".1" rx="0" ry="0"/>
  <rect class="st2" x="9.4" y="6.6" width=".5" height=".1" rx="0" ry="0"/>
  <path class="st0" d="M8,6.8s0,0,0,0h-.1c0-.1,0-.2,0-.2s0,0,0,0h0c0,0,.2-.1.2-.1,0,0,0,0,0,0s0,0,0,0l-.2.2s0,0,0,0Z"/>
  <rect class="st1" x="8.5" y="7.2" width=".8" height=".1" rx="0" ry="0"/>
  <rect class="st2" x="9.4" y="7.2" width=".5" height=".1" rx="0" ry="0"/>
  <path class="st0" d="M8,7.4s0,0,0,0h-.1c0-.1,0-.2,0-.2s0,0,0,0h0c0,0,.2-.1.2-.1,0,0,0,0,0,0s0,0,0,0l-.2.2s0,0,0,0Z"/>
  <rect class="st1" x="8.5" y="7.8" width=".8" height=".1" rx="0" ry="0"/>
  <rect class="st2" x="9.4" y="7.8" width=".5" height=".1" rx="0" ry="0"/>
  <path class="st0" d="M8,8.1s0,0,0,0h-.1c0-.1,0-.2,0-.2s0,0,0,0h0c0,0,.2-.1.2-.1,0,0,0,0,0,0s0,0,0,0l-.2.2s0,0,0,0Z"/>
  <path class="st2" d="M9,10c-1.5,0-2.7-1.2-2.7-2.7s1.2-2.7,2.7-2.7.5.2.5.5-.2.5-.5.5c-.9,0-1.7.8-1.7,1.7s.8,1.7,1.7,1.7.9-.2,1.3-.6h0v-3.4h0c0-.3.3-.5.5-.5,0,0,0,0,0,0,.3,0,.5.2.5.5v3.5c0,.2.1.3.3.3h1.5c.1,0,.3,0,.4.2,0,.1.1.2.1.4,0,.3-.2.5-.5.5h-2.3c0,0-.1,0-.2,0,0,0,0,0,0,0-.1,0-.2-.1-.3-.2h0s0,0,0,0c-.4.2-.8.3-1.3.3Z"/>
</svg>