<svg width="20" height="20" viewBox="0 0 20 20" fill="none" xmlns="http://www.w3.org/2000/svg">
<g clip-path="url(#clip0_1_6)">
<path d="M10 4.28571H20V5.71429H10V4.28571ZM10 14.2857H20V15.7143H10V14.2857ZM5.71429 8.57143H1.42857C1.04981 8.57105 0.686664 8.42042 0.418836 8.15259C0.15101 7.88476 0.000378198 7.52162 0 7.14286V2.85714C0.000378198 2.47838 0.15101 2.11524 0.418836 1.84741C0.686664 1.57958 1.04981 1.42895 1.42857 1.42857H5.71429C6.09305 1.42895 6.45619 1.57958 6.72402 1.84741C6.99185 2.11524 7.14248 2.47838 7.14286 2.85714V7.14286C7.14248 7.52162 6.99185 7.88476 6.72402 8.15259C6.45619 8.42042 6.09305 8.57105 5.71429 8.57143ZM1.42857 2.85714V7.14286H5.715L5.71429 2.85714H1.42857ZM5.71429 18.5714H1.42857C1.04981 18.571 0.686664 18.4204 0.418836 18.1526C0.15101 17.8848 0.000378198 17.5216 0 17.1429V12.8571C0.000378198 12.4784 0.15101 12.1152 0.418836 11.8474C0.686664 11.5796 1.04981 11.429 1.42857 11.4286H5.71429C6.09305 11.429 6.45619 11.5796 6.72402 11.8474C6.99185 12.1152 7.14248 12.4784 7.14286 12.8571V17.1429C7.14248 17.5216 6.99185 17.8848 6.72402 18.1526C6.45619 18.4204 6.09305 18.571 5.71429 18.5714ZM1.42857 12.8571V17.1429H5.715L5.71429 12.8571H1.42857Z" fill="black"/>
</g>
<defs>
<clipPath id="clip0_1_6">
<rect width="20" height="20" fill="white"/>
</clipPath>
</defs>
</svg>
