<svg width="16" height="22" viewBox="0 0 16 22" fill="none" xmlns="http://www.w3.org/2000/svg">
<path d="M7.99661 3.18821C7.2273 3.18821 6.47527 3.41521 5.83561 3.8405C5.19595 4.26578 4.6974 4.87026 4.403 5.57749C4.1086 6.28472 4.03157 7.06294 4.18165 7.81373C4.33174 8.56452 4.7022 9.25416 5.24618 9.79545C5.79016 10.3367 6.48324 10.7054 7.23776 10.8547C7.99229 11.004 8.77438 10.9274 9.48513 10.6345C10.1959 10.3415 10.8034 9.84543 11.2308 9.20894C11.6582 8.57245 11.8863 7.82414 11.8863 7.05864C11.8863 6.03214 11.4765 5.04768 10.747 4.32183C10.0176 3.59599 9.02822 3.18821 7.99661 3.18821ZM7.99661 9.57814C7.49582 9.57814 7.00627 9.43037 6.58988 9.15353C6.17349 8.87668 5.84896 8.48319 5.65731 8.02281C5.46567 7.56243 5.41553 7.05585 5.51323 6.56711C5.61092 6.07838 5.85208 5.62945 6.20619 5.27709C6.5603 4.92473 7.01146 4.68477 7.50263 4.58756C7.9938 4.49034 8.5029 4.54024 8.96557 4.73093C9.42824 4.92163 9.82369 5.24456 10.1019 5.65889C10.3801 6.07321 10.5286 6.56033 10.5286 7.05864C10.5268 7.72568 10.2593 8.36479 9.78463 8.83583C9.30997 9.30687 8.66697 9.57139 7.99661 9.57138V9.57814Z" fill="#F9423A"/>
<path d="M7.99661 6.68665e-10C5.88219 0.00175728 3.85438 0.836018 2.35608 2.32057C0.857789 3.80512 0.0107597 5.81932 0 7.92324C0 11.0777 1.77853 13.7188 3.08188 15.6438L3.31947 15.9951C4.61623 17.8652 6.00735 19.6688 7.48748 21.3988L8.00339 22L8.5193 21.3988C9.99925 19.6686 11.3904 17.8651 12.6873 15.9951L12.9249 15.6371C14.2215 13.712 16 11.0777 16 7.92324C15.9892 5.81815 15.1413 3.80293 13.6415 2.31819C12.1417 0.833445 10.1122 -2.72592e-05 7.99661 6.68665e-10ZM11.7913 14.8603L11.5469 15.2183C10.3793 16.961 8.83156 18.9131 7.99661 19.879C7.19559 18.9131 5.61392 16.961 4.44633 15.2183L4.20874 14.8603C3.00721 13.0771 1.35766 10.6386 1.35766 7.89622C1.35766 7.0287 1.52938 6.16967 1.86302 5.36819C2.19666 4.5667 2.68568 3.83845 3.30216 3.22502C3.91864 2.61159 4.65052 2.12499 5.45599 1.793C6.26146 1.46102 7.12477 1.29014 7.99661 1.29014C8.86844 1.29014 9.73175 1.46102 10.5372 1.793C11.3427 2.12499 12.0746 2.61159 12.6911 3.22502C13.3075 3.83845 13.7966 4.5667 14.1302 5.36819C14.4638 6.16967 14.6356 7.0287 14.6356 7.89622C14.6356 10.6656 12.9928 13.1041 11.7913 14.8603Z" fill="#F9423A"/>
</svg>
